<?xml version="1.0" encoding="UTF-8" standalone="no"?>
<!-- Created with Inkscape (http://www.inkscape.org/) -->

<svg
   xmlns:dc="http://purl.org/dc/elements/1.1/"
   xmlns:cc="http://creativecommons.org/ns#"
   xmlns:rdf="http://www.w3.org/1999/02/22-rdf-syntax-ns#"
   xmlns:svg="http://www.w3.org/2000/svg"
   xmlns="http://www.w3.org/2000/svg"
   xmlns:sodipodi="http://sodipodi.sourceforge.net/DTD/sodipodi-0.dtd"
   xmlns:inkscape="http://www.inkscape.org/namespaces/inkscape"
   width="2125.9841"
   height="3543.3069"
   id="svg2"
   version="1.1"
   inkscape:version="0.48.5 r10040"
   inkscape:export-filename="/home/aliceinwonderland/Desktop/Diseno_maleta.png"
   inkscape:export-xdpi="90"
   inkscape:export-ydpi="90"
   sodipodi:docname="diseno.svg">
  <defs
     id="defs4" />
  <sodipodi:namedview
     id="base"
     pagecolor="#ffffff"
     bordercolor="#666666"
     borderopacity="1.0"
     inkscape:pageopacity="1"
     inkscape:pageshadow="2"
     inkscape:zoom="0.3070578"
     inkscape:cx="1214.1641"
     inkscape:cy="1146.707"
     inkscape:document-units="cm"
     inkscape:current-layer="layer1"
     showgrid="true"
     units="cm"
     inkscape:snap-grids="false"
     inkscape:window-width="1362"
     inkscape:window-height="729"
     inkscape:window-x="0"
     inkscape:window-y="18"
     inkscape:window-maximized="0">
    <inkscape:grid
       type="xygrid"
       id="grid3775"
       empspacing="5"
       visible="true"
       enabled="true"
       snapvisiblegridlinesonly="true" />
  </sodipodi:namedview>
  <metadata
     id="metadata7">
    <rdf:RDF>
      <cc:Work
         rdf:about="">
        <dc:format>image/svg+xml</dc:format>
        <dc:type
           rdf:resource="http://purl.org/dc/dcmitype/StillImage" />
        <dc:title />
      </cc:Work>
    </rdf:RDF>
  </metadata>
  <g
     inkscape:label="Layer 1"
     inkscape:groupmode="layer"
     id="layer1"
     transform="translate(0,2490.9462)">
    <rect
       style="fill:#000000;fill-opacity:0"
       id="rect2985"
       width="1984.252"
       height="744.09448"
       x="290.92392"
       y="-2342.8176" />
    <rect
       style="fill:#000000;fill-opacity:0"
       id="rect2989"
       width="1984.252"
       height="1417.3229"
       x="371.73615"
       y="-2314.5334" />
    <rect
       style="fill:#be0000;fill-opacity:1;stroke:#ff0000;stroke-width:4.8335371;stroke-miterlimit:4;stroke-opacity:1;stroke-dasharray:none"
       id="rect2991"
       width="1908.5522"
       height="1377.0563"
       x="104.60711"
       y="-2162.6711"
       ry="206.55841" />
    <path
       style="fill:none;stroke:#000000;stroke-width:6;stroke-linecap:butt;stroke-linejoin:miter;stroke-miterlimit:4;stroke-opacity:1;stroke-dasharray:none"
       d="m 236.1119,-777.9286 1651.155,-1.6283"
       id="path3779"
       inkscape:connector-curvature="0" />
    <path
       sodipodi:type="arc"
       style="fill:none;stroke:#000000;stroke-width:5;stroke-miterlimit:4;stroke-opacity:1;stroke-dasharray:none"
       id="path3781"
       sodipodi:cx="162.35063"
       sodipodi:cy="395.31656"
       sodipodi:rx="5.7571149"
       sodipodi:ry="5.7571149"
       d="m 168.10775,395.31656 c 0,3.17957 -2.57755,5.75711 -5.75712,5.75711 -3.17957,0 -5.75711,-2.57754 -5.75711,-5.75711 0,-3.17957 2.57754,-5.75712 5.75711,-5.75712 3.17957,0 5.75712,2.57755 5.75712,5.75712 z"
       transform="matrix(1.5034604,0,0,1.4034604,-23.707146,-2608.9865)" />
    <path
       transform="matrix(1.5034605,0,0,1.4034605,1648.2098,-2609.4723)"
       d="m 168.10775,395.31656 c 0,3.17957 -2.57755,5.75711 -5.75712,5.75711 -3.17957,0 -5.75711,-2.57754 -5.75711,-5.75711 0,-3.17957 2.57754,-5.75712 5.75711,-5.75712 3.17957,0 5.75712,2.57755 5.75712,5.75712 z"
       sodipodi:ry="5.7571149"
       sodipodi:rx="5.7571149"
       sodipodi:cy="395.31656"
       sodipodi:cx="162.35063"
       id="path3783"
       style="fill:none;stroke:#000000;stroke-width:5;stroke-miterlimit:4;stroke-opacity:1;stroke-dasharray:none"
       sodipodi:type="arc" />
    <path
       sodipodi:type="arc"
       style="fill:none;stroke:#000000;stroke-width:5;stroke-miterlimit:4;stroke-opacity:1;stroke-dasharray:none"
       id="path3781-0"
       sodipodi:cx="162.35063"
       sodipodi:cy="395.31656"
       sodipodi:rx="5.7571149"
       sodipodi:ry="5.7571149"
       d="m 168.10775,395.31656 c 0,3.17957 -2.57755,5.75711 -5.75712,5.75711 -3.17957,0 -5.75711,-2.57754 -5.75711,-5.75711 0,-3.17957 2.57754,-5.75712 5.75711,-5.75712 3.17957,0 5.75712,2.57755 5.75712,5.75712 z"
       transform="matrix(1.5034604,0,0,1.4034604,-31.800726,-1438.4732)" />
    <path
       sodipodi:type="arc"
       style="fill:none;stroke:#000000;stroke-width:5;stroke-miterlimit:4;stroke-opacity:1;stroke-dasharray:none"
       id="path3781-3"
       sodipodi:cx="162.35063"
       sodipodi:cy="395.31656"
       sodipodi:rx="5.7571149"
       sodipodi:ry="5.7571149"
       d="m 168.10775,395.31656 c 0,3.17957 -2.57755,5.75711 -5.75712,5.75711 -3.17957,0 -5.75711,-2.57754 -5.75711,-5.75711 0,-3.17957 2.57754,-5.75712 5.75711,-5.75712 3.17957,0 5.75712,2.57755 5.75712,5.75712 z"
       transform="matrix(1.5034604,0,0,1.4034604,1665.7119,-1440.1426)" />
    <rect
       style="fill:#be0000;fill-opacity:1;stroke:#ff0000;stroke-width:4.8335371;stroke-miterlimit:4;stroke-opacity:1;stroke-dasharray:none"
       id="rect2991-8"
       width="1908.5522"
       height="1377.0563"
       x="116.30102"
       y="-774.75073"
       ry="206.55843" />
    <path
       sodipodi:type="arc"
       style="fill:none;stroke:#000000;stroke-width:5;stroke-miterlimit:4;stroke-opacity:1;stroke-dasharray:none"
       id="path3781-1"
       sodipodi:cx="162.35063"
       sodipodi:cy="395.31656"
       sodipodi:rx="5.7571149"
       sodipodi:ry="5.7571149"
       d="m 168.10775,395.31656 c 0,3.17957 -2.57755,5.75711 -5.75712,5.75711 -3.17957,0 -5.75711,-2.57754 -5.75711,-5.75711 0,-3.17957 2.57754,-5.75712 5.75711,-5.75712 3.17957,0 5.75712,2.57755 5.75712,5.75712 z"
       transform="matrix(1.5034604,0,0,1.4034604,-24.277428,-1220.2153)" />
    <path
       transform="matrix(1.5034605,0,0,1.4034605,1667.4247,-1226.8429)"
       d="m 168.10775,395.31656 c 0,3.17957 -2.57755,5.75711 -5.75712,5.75711 -3.17957,0 -5.75711,-2.57754 -5.75711,-5.75711 0,-3.17957 2.57754,-5.75712 5.75711,-5.75712 3.17957,0 5.75712,2.57755 5.75712,5.75712 z"
       sodipodi:ry="5.7571149"
       sodipodi:rx="5.7571149"
       sodipodi:cy="395.31656"
       sodipodi:cx="162.35063"
       id="path3783-0"
       style="fill:none;stroke:#000000;stroke-width:5;stroke-miterlimit:4;stroke-opacity:1;stroke-dasharray:none"
       sodipodi:type="arc" />
    <path
       sodipodi:type="arc"
       style="fill:none;stroke:#000000;stroke-width:5;stroke-miterlimit:4;stroke-opacity:1;stroke-dasharray:none"
       id="path3781-0-7"
       sodipodi:cx="162.35063"
       sodipodi:cy="395.31656"
       sodipodi:rx="5.7571149"
       sodipodi:ry="5.7571149"
       d="m 168.10775,395.31656 c 0,3.17957 -2.57755,5.75711 -5.75712,5.75711 -3.17957,0 -5.75711,-2.57754 -5.75711,-5.75711 0,-3.17957 2.57754,-5.75712 5.75711,-5.75712 3.17957,0 5.75712,2.57755 5.75712,5.75712 z"
       transform="matrix(1.5034604,0,0,1.4034604,-6.2819432,-57.019199)" />
    <path
       sodipodi:type="arc"
       style="fill:none;stroke:#000000;stroke-width:5;stroke-miterlimit:4;stroke-opacity:1;stroke-dasharray:none"
       id="path3781-3-6"
       sodipodi:cx="162.35063"
       sodipodi:cy="395.31656"
       sodipodi:rx="5.7571149"
       sodipodi:ry="5.7571149"
       d="m 168.10775,395.31656 c 0,3.17957 -2.57755,5.75711 -5.75712,5.75711 -3.17957,0 -5.75711,-2.57754 -5.75711,-5.75711 0,-3.17957 2.57754,-5.75712 5.75711,-5.75712 3.17957,0 5.75712,2.57755 5.75712,5.75712 z"
       transform="matrix(1.5034604,0,0,1.4034604,1683.4059,-66.22212)" />
    <path
       sodipodi:type="arc"
       style="fill:none;stroke:#000000;stroke-width:5;stroke-miterlimit:4;stroke-opacity:1;stroke-dasharray:none"
       id="path3781-1-0"
       sodipodi:cx="162.35063"
       sodipodi:cy="395.31656"
       sodipodi:rx="5.7571149"
       sodipodi:ry="5.7571149"
       d="m 168.10775,395.31656 c 0,3.17957 -2.57755,5.75711 -5.75712,5.75711 -3.17957,0 -5.75711,-2.57754 -5.75711,-5.75711 0,-3.17957 2.57754,-5.75712 5.75711,-5.75712 3.17957,0 5.75712,2.57755 5.75712,5.75712 z"
       transform="matrix(1.5034604,0,0,1.4034604,808.71655,-1234.4024)" />
    <path
       sodipodi:type="arc"
       style="fill:none;stroke:#000000;stroke-width:5;stroke-miterlimit:4;stroke-opacity:1;stroke-dasharray:none"
       id="path3781-1-1"
       sodipodi:cx="162.35063"
       sodipodi:cy="395.31656"
       sodipodi:rx="5.7571149"
       sodipodi:ry="5.7571149"
       d="m 168.10775,395.31656 c 0,3.17957 -2.57755,5.75711 -5.75712,5.75711 -3.17957,0 -5.75711,-2.57754 -5.75711,-5.75711 0,-3.17957 2.57754,-5.75712 5.75711,-5.75712 3.17957,0 5.75712,2.57755 5.75712,5.75712 z"
       transform="matrix(1.5034604,0,0,1.4034604,808.36419,-2614.4088)" />
    <path
       sodipodi:type="arc"
       style="fill:none;stroke:#000000;stroke-width:5;stroke-miterlimit:4;stroke-opacity:1;stroke-dasharray:none"
       id="path3781-1-02"
       sodipodi:cx="162.35063"
       sodipodi:cy="395.31656"
       sodipodi:rx="5.7571149"
       sodipodi:ry="5.7571149"
       d="m 168.10775,395.31656 c 0,3.17957 -2.57755,5.75711 -5.75712,5.75711 -3.17957,0 -5.75711,-2.57754 -5.75711,-5.75711 0,-3.17957 2.57754,-5.75712 5.75711,-5.75712 3.17957,0 5.75712,2.57755 5.75712,5.75712 z"
       transform="matrix(1.5034604,0,0,1.4034604,804.57477,-43.099625)" />
    <path
       sodipodi:type="arc"
       style="fill:none;stroke:#000000;stroke-width:5;stroke-miterlimit:4;stroke-opacity:1;stroke-dasharray:none"
       id="path3781-1-5"
       sodipodi:cx="162.35063"
       sodipodi:cy="395.31656"
       sodipodi:rx="5.7571149"
       sodipodi:ry="5.7571149"
       d="m 168.10775,395.31656 c 0,3.17957 -2.57755,5.75711 -5.75712,5.75711 -3.17957,0 -5.75711,-2.57754 -5.75711,-5.75711 0,-3.17957 2.57754,-5.75712 5.75711,-5.75712 3.17957,0 5.75712,2.57755 5.75712,5.75712 z"
       transform="matrix(1.5034604,0,0,1.4034604,813.83149,-1423.9128)" />
    <rect
       style="fill:#0000ff;fill-opacity:0;stroke:#0000ff;stroke-width:4.72677374;stroke-miterlimit:4;stroke-opacity:1;stroke-dasharray:none"
       id="rect2991-1"
       width="1873.226"
       height="1341.7299"
       x="-1996.7811"
       y="-2139.78"
       ry="210.07129"
       transform="scale(-1,1)" />
    <rect
       style="fill:#0000ff;fill-opacity:0;stroke:#0000ff;stroke-width:4.72677374;stroke-miterlimit:4;stroke-opacity:1;stroke-dasharray:none"
       id="rect2991-1-9"
       width="1873.226"
       height="1341.7299"
       x="134.34613"
       y="-756.91217"
       ry="210.07129" />
    <path
       style="fill:none;stroke:#000000;stroke-width:177.16535433;stroke-linecap:butt;stroke-linejoin:miter;stroke-miterlimit:4;stroke-opacity:1;stroke-dasharray:none"
       d="m 138.08361,-447.46216 1866.11699,-3.2567"
       id="path3940-0"
       inkscape:connector-curvature="0" />
    <path
       style="fill:none;stroke:#000000;stroke-width:177.16535433;stroke-linecap:butt;stroke-linejoin:miter;stroke-miterlimit:4;stroke-opacity:1;stroke-dasharray:none"
       d="m 136.86019,-199.28166 1867.87051,-3.2567"
       id="path3940-3-6"
       inkscape:connector-curvature="0" />
    <path
       style="fill:none;stroke:#000000;stroke-width:177.16535433;stroke-linecap:butt;stroke-linejoin:miter;stroke-miterlimit:4;stroke-opacity:1;stroke-dasharray:none"
       d="m 141.37244,318.71224 1859.72076,-3.2567"
       id="path3940-1-8"
       inkscape:connector-curvature="0" />
    <path
       style="fill:none;stroke:#000000;stroke-width:177.16535433;stroke-linecap:butt;stroke-linejoin:miter;stroke-miterlimit:4;stroke-opacity:1;stroke-dasharray:none"
       d="m 133.29299,73.646642 1872.49561,-3.2567"
       id="path3940-2-7"
       inkscape:connector-curvature="0" />
    <path
       style="fill:none;stroke:#000000;stroke-width:69.60253143;stroke-linecap:butt;stroke-linejoin:miter;stroke-miterlimit:4;stroke-opacity:1;stroke-dasharray:none"
       d="m 127.85192,-1865.2903 1866.11698,-3.2567"
       id="path3940-0-6"
       inkscape:connector-curvature="0" />
    <path
       style="fill:none;stroke:#000000;stroke-width:69.63523865;stroke-linecap:butt;stroke-linejoin:miter;stroke-miterlimit:4;stroke-opacity:1;stroke-dasharray:none"
       d="m 126.6285,-1613.1098 1867.8705,-3.2567"
       id="path3940-3-6-7"
       inkscape:connector-curvature="0" />
    <path
       style="fill:none;stroke:#000000;stroke-width:69.48314667;stroke-linecap:butt;stroke-linejoin:miter;stroke-miterlimit:4;stroke-opacity:1;stroke-dasharray:none"
       d="m 131.14075,-1081.1159 1859.72075,-3.2567"
       id="path3940-1-8-5"
       inkscape:connector-curvature="0" />
    <path
       style="fill:none;stroke:#000000;stroke-width:69.72138977;stroke-linecap:butt;stroke-linejoin:miter;stroke-miterlimit:4;stroke-opacity:1;stroke-dasharray:none"
       d="m 123.0613,-1344.1815 1872.4956,-3.2567"
       id="path3940-2-7-3"
       inkscape:connector-curvature="0" />
    <path
       style="fill:none;stroke:#000000;stroke-width:1px;stroke-linecap:butt;stroke-linejoin:miter;stroke-opacity:1"
       d="m 123.7552,709.96407 6.51344,231.22683"
       id="path3055"
       inkscape:connector-curvature="0"
       transform="translate(0,-2490.9462)" />
    <rect
       style="fill:#ffff00;stroke:#00ff00;stroke-width:15.5376873;stroke-linejoin:miter;stroke-miterlimit:4;stroke-opacity:1;stroke-dasharray:none"
       id="rect3781"
       width="338.793"
       height="338.79303"
       x="1586.6848"
       y="-481.52408"
       transform="matrix(0.99996139,-0.008787,0.008787,0.99996139,0,0)" />
    <rect
       style="fill:#ffff00;fill-opacity:1;stroke:#00ff00;stroke-width:16.49324226;stroke-linejoin:miter;stroke-miterlimit:4;stroke-opacity:1;stroke-dasharray:none"
       id="rect3783"
       width="408.70361"
       height="408.70361"
       x="998.82336"
       y="-527.57697" />
    <rect
       style="fill:#ffff00;fill-opacity:1;stroke:#00ff00;stroke-width:13.35384178;stroke-linejoin:miter;stroke-miterlimit:4;stroke-opacity:1;stroke-dasharray:none"
       id="rect3785"
       width="450.8194"
       height="450.8194"
       x="338.63968"
       y="-549.70044" />
    <rect
       style="fill:#ffff00;fill-opacity:1;stroke:#00ff00;stroke-width:12.31516933;stroke-linejoin:miter;stroke-miterlimit:4;stroke-opacity:1;stroke-dasharray:none"
       id="rect3787"
       width="324.29901"
       height="235.71632"
       x="-341.2139"
       y="1497.8278"
       transform="matrix(0.00458807,-0.99998947,0.99998947,0.00458807,0,0)" />
    <path
       style="fill:none;stroke:#000000;stroke-width:177.1653595;stroke-linecap:butt;stroke-linejoin:miter;stroke-miterlimit:4;stroke-opacity:1;stroke-dasharray:none"
       d="m 1204.9849,-518.1196 -3.2568,397.3193"
       id="path3784"
       inkscape:connector-curvature="0" />
    <path
       style="fill:none;stroke:#000000;stroke-width:182.81503296;stroke-linecap:butt;stroke-linejoin:miter;stroke-miterlimit:4;stroke-opacity:1;stroke-dasharray:none"
       d="m 1760.3209,-500.96711 1.6382,348.69957"
       id="path3784-3"
       inkscape:connector-curvature="0" />
    <path
       style="fill:none;stroke:#000000;stroke-width:177.1653595;stroke-linecap:butt;stroke-linejoin:miter;stroke-miterlimit:4;stroke-opacity:1;stroke-dasharray:none"
       d="m 470.59549,-510.8629 -3.2568,397.3193"
       id="path3784-6"
       inkscape:connector-curvature="0" />
    <path
       style="fill:none;stroke:#000000;stroke-width:177.1653595;stroke-linecap:butt;stroke-linejoin:miter;stroke-miterlimit:4;stroke-opacity:1;stroke-dasharray:none"
       d="m 665.99843,-507.60619 -3.2568,397.3193"
       id="path3784-7"
       inkscape:connector-curvature="0" />
  </g>
</svg>
