<?xml version="1.0" encoding="UTF-8" standalone="no"?>
<!-- Created with Inkscape (http://www.inkscape.org/) -->

<svg
   xmlns:dc="http://purl.org/dc/elements/1.1/"
   xmlns:cc="http://creativecommons.org/ns#"
   xmlns:rdf="http://www.w3.org/1999/02/22-rdf-syntax-ns#"
   xmlns:svg="http://www.w3.org/2000/svg"
   xmlns="http://www.w3.org/2000/svg"
   xmlns:sodipodi="http://sodipodi.sourceforge.net/DTD/sodipodi-0.dtd"
   xmlns:inkscape="http://www.inkscape.org/namespaces/inkscape"
   width="2125.9841"
   height="3543.3069"
   id="svg2"
   version="1.1"
   inkscape:version="0.48.5 r10040"
   inkscape:export-filename="/home/aliceinwonderland/Desktop/Diseno_maleta.png"
   inkscape:export-xdpi="90"
   inkscape:export-ydpi="90"
   sodipodi:docname="diseno_corte_2.svg">
  <defs
     id="defs4" />
  <sodipodi:namedview
     id="base"
     pagecolor="#ffffff"
     bordercolor="#666666"
     borderopacity="1.0"
     inkscape:pageopacity="1"
     inkscape:pageshadow="2"
     inkscape:zoom="0.21712265"
     inkscape:cx="252.35491"
     inkscape:cy="700.8677"
     inkscape:document-units="px"
     inkscape:current-layer="layer1"
     showgrid="false"
     units="cm"
     inkscape:snap-grids="false"
     inkscape:window-width="1362"
     inkscape:window-height="729"
     inkscape:window-x="0"
     inkscape:window-y="18"
     inkscape:window-maximized="0">
    <inkscape:grid
       type="xygrid"
       id="grid3775"
       empspacing="5"
       visible="true"
       enabled="true"
       snapvisiblegridlinesonly="true" />
  </sodipodi:namedview>
  <metadata
     id="metadata7">
    <rdf:RDF>
      <cc:Work
         rdf:about="">
        <dc:format>image/svg+xml</dc:format>
        <dc:type
           rdf:resource="http://purl.org/dc/dcmitype/StillImage" />
        <dc:title></dc:title>
      </cc:Work>
    </rdf:RDF>
  </metadata>
  <g
     inkscape:label="Layer 1"
     inkscape:groupmode="layer"
     id="layer1"
     transform="translate(0,2490.9462)">
    <rect
       style="fill:#000000;fill-opacity:0"
       id="rect2985"
       width="1984.252"
       height="744.09448"
       x="290.92392"
       y="-2342.8176" />
    <rect
       style="fill:#000000;fill-opacity:0"
       id="rect2989"
       width="1984.252"
       height="1417.3229"
       x="371.73615"
       y="-2314.5334" />
    <rect
       style="fill:none;stroke:#ff0000;stroke-width:0.10629921;stroke-miterlimit:4;stroke-opacity:1;stroke-dasharray:none"
       id="rect2991"
       width="1873.226"
       height="1341.7299"
       x="124.55373"
       y="-2369.2913"
       ry="212.59842"
       rx="212.59842" />
    <rect
       ry="212.59842"
       y="-954.67963"
       x="127.63432"
       height="1341.7299"
       width="1873.226"
       id="rect3048"
       style="fill:none;stroke:#ff0000;stroke-width:0.10629921;stroke-miterlimit:4;stroke-opacity:1;stroke-dasharray:none"
       rx="212.59842" />
    <g
       id="g3167"
       transform="matrix(1.247907,0,0,1.2431294,382.77438,479.66512)">
      <g
         id="g3"
         transform="translate(376.83102,32.500019)">
        <path
           style="fill:none;stroke:#000000;stroke-width:0.89999998"
           inkscape:connector-curvature="0"
           id="path5"
           d="M 199.594,-4.5" />
        <polyline
           style="fill:none;stroke:#000000;stroke-width:0.89999998"
           id="polyline7"
           points="-65.02,270.464 -65.02,4.004 -75.367,4.004 -75.367,-4.5    199.594,-4.5  " />
        <path
           style="fill:none;stroke:#000000;stroke-width:0.89999998"
           inkscape:connector-curvature="0"
           id="path9"
           d="M -51.272,278.964" />
      </g>
      <line
         style="fill:none;stroke:#000000;stroke-width:1;stroke-miterlimit:10"
         id="line51"
         y2="302.96399"
         x2="577.40601"
         y1="36.504002"
         x1="577.40601"
         stroke-miterlimit="10" />
      <line
         style="fill:none;stroke:#000000;stroke-width:1;stroke-miterlimit:10"
         id="line53"
         y2="302.96399"
         x2="383.66901"
         y1="302.96399"
         x1="311.811"
         stroke-miterlimit="10" />
      <path
         style="fill:none;stroke:#000000;stroke-width:1;stroke-miterlimit:10"
         inkscape:connector-curvature="0"
         id="path55"
         d="M 309.969,287.37"
         stroke-miterlimit="10" />
      <path
         style="fill:none;stroke:#000000;stroke-width:1;stroke-miterlimit:10"
         inkscape:connector-curvature="0"
         id="path57"
         d="M 576.425,28"
         stroke-miterlimit="10" />
      <path
         style="fill:none;stroke:#000000;stroke-width:1;stroke-miterlimit:10"
         inkscape:connector-curvature="0"
         id="path59"
         d="M 309.969,28"
         stroke-miterlimit="10" />
      <polyline
         style="fill:none;stroke:#000000;stroke-miterlimit:10"
         transform="translate(0,10)"
         id="polyline61"
         points="576.425,18 584.929,18 584.929,26.504 576.864,26.504 "
         stroke-miterlimit="10" />
      <line
         style="fill:none;stroke:#000000;stroke-width:0.89999998"
         id="line63"
         y2="311.46399"
         x2="383.66901"
         y1="311.46399"
         x1="400.677" />
      <polyline
         style="fill:none;stroke:#000000;stroke-width:0.89999998"
         transform="translate(0,10)"
         id="polyline65"
         points="485.716,301.464 502.724,301.464 502.724,292.964 " />
      <line
         style="fill:none;stroke:#000000;stroke-width:0.89999998"
         id="line71"
         y2="302.96399"
         x2="383.66901"
         y1="311.46399"
         x1="383.66901" />
      <line
         style="fill:none;stroke:#000000;stroke-width:0.89999998"
         id="line73"
         y2="311.46399"
         x2="400.677"
         y1="302.96399"
         x1="400.677" />
      <line
         style="fill:none;stroke:#000000;stroke-width:1;stroke-miterlimit:10"
         id="line75"
         y2="302.96399"
         x2="485.716"
         y1="302.96399"
         x1="400.677"
         stroke-miterlimit="10" />
      <line
         style="fill:none;stroke:#000000;stroke-width:1;stroke-miterlimit:10"
         id="line77"
         y2="302.96399"
         x2="577.40601"
         y1="302.96399"
         x1="502.724"
         stroke-miterlimit="10" />
      <line
         style="fill:none;stroke:#000000;stroke-width:0.89999998"
         id="line79"
         y2="302.96399"
         x2="485.716"
         y1="311.46399"
         x1="485.716" />
      <g
         id="g81"
         transform="translate(376.83102,32.500019)">
        <path
           style="fill:none;stroke:#000000;stroke-width:0.89999998"
           inkscape:connector-curvature="0"
           id="path83"
           d="M -83.871,-3.994" />
        <polyline
           style="fill:none;stroke:#000000;stroke-width:0.89999998"
           id="polyline85"
           points="-348.485,270.97 -348.485,4.51 -358.832,4.51 -358.832,-3.994    -83.871,-3.994  " />
      </g>
      <path
         style="fill:none;stroke:#000000;stroke-width:0.89999998"
         inkscape:connector-curvature="0"
         id="path87"
         d="M 219.259,311.97" />
      <path
         style="fill:none;stroke:#000000;stroke-width:0.89999998"
         inkscape:connector-curvature="0"
         id="path89"
         d="M 202.251,311.97" />
      <path
         style="fill:none;stroke:#000000;stroke-width:0.89999998"
         inkscape:connector-curvature="0"
         id="path91"
         d="M 151.228,311.97" />
      <path
         style="fill:none;stroke:#000000;stroke-width:0.89999998"
         inkscape:connector-curvature="0"
         id="path93"
         d="M 117.212,311.97" />
      <path
         style="fill:none;stroke:#000000;stroke-width:0.89999998"
         inkscape:connector-curvature="0"
         id="path95"
         d="M 100.205,311.97" />
      <line
         style="fill:none;stroke:#000000;stroke-width:1;stroke-miterlimit:10"
         id="line97"
         y2="303.47"
         x2="293.94101"
         y1="37.010002"
         x1="293.94101"
         stroke-miterlimit="10" />
      <line
         style="fill:none;stroke:#000000;stroke-width:1;stroke-miterlimit:10"
         id="line99"
         y2="303.47"
         x2="100.205"
         y1="303.47"
         x1="28.346001"
         stroke-miterlimit="10" />
      <path
         style="fill:none;stroke:#000000;stroke-width:1;stroke-miterlimit:10"
         inkscape:connector-curvature="0"
         id="path101"
         d="M 26.503,287.876"
         stroke-miterlimit="10" />
      <path
         style="fill:none;stroke:#000000;stroke-width:1;stroke-miterlimit:10"
         inkscape:connector-curvature="0"
         id="path103"
         d="M 292.96,28.506"
         stroke-miterlimit="10" />
      <path
         style="fill:none;stroke:#000000;stroke-width:1;stroke-miterlimit:10"
         inkscape:connector-curvature="0"
         id="path105"
         d="M 26.503,28.506"
         stroke-miterlimit="10" />
      <polyline
         style="fill:none;stroke:#000000;stroke-miterlimit:10"
         transform="translate(0,10)"
         id="polyline107"
         points="292.96,18.506 301.464,18.506 301.464,27.01 293.399,27.01   "
         stroke-miterlimit="10" />
      <line
         style="fill:none;stroke:#000000;stroke-width:0.89999998"
         id="line109"
         y2="311.97"
         x2="100.205"
         y1="311.97"
         x1="117.212" />
      <polyline
         style="fill:none;stroke:#000000;stroke-width:0.89999998"
         transform="translate(0,10)"
         id="polyline111"
         points="202.251,301.97 219.259,301.97 219.259,293.47 " />
      <line
         style="fill:none;stroke:#000000;stroke-width:0.89999998"
         id="line113"
         y2="303.47"
         x2="100.205"
         y1="311.97"
         x1="100.205" />
      <line
         style="fill:none;stroke:#000000;stroke-width:0.89999998"
         id="line115"
         y2="311.97"
         x2="117.212"
         y1="303.47"
         x1="117.212" />
      <line
         style="fill:none;stroke:#000000;stroke-width:1;stroke-miterlimit:10"
         id="line117"
         y2="303.47"
         x2="202.25101"
         y1="303.47"
         x1="117.212"
         stroke-miterlimit="10" />
      <line
         style="fill:none;stroke:#000000;stroke-width:1;stroke-miterlimit:10"
         id="line119"
         y2="303.47"
         x2="293.94101"
         y1="303.47"
         x1="219.259"
         stroke-miterlimit="10" />
      <line
         style="fill:none;stroke:#000000;stroke-width:0.89999998"
         id="line121"
         y2="303.47"
         x2="202.25101"
         y1="311.97"
         x1="202.25101" />
    </g>
    <g
       transform="translate(678.73954,248.60631)"
       id="g3256">
      <g
         id="g11"
         transform="matrix(1.2460419,0,0,1.2460419,1128.9964,351.51946)">
        <line
           style="fill:none;stroke:#000000;stroke-width:0.89999998"
           id="line13"
           y2="-66.862999"
           x2="-146.233"
           y1="-51.272999"
           x1="-146.233" />
        <line
           style="fill:none;stroke:#000000;stroke-width:0.89999998"
           id="line15"
           y2="-27.177"
           x2="-146.233"
           y1="-10.169"
           x1="-146.233" />
        <line
           style="fill:none;stroke:#000000;stroke-width:0.89999998"
           id="line17"
           y2="6.8379998"
           x2="-146.233"
           y1="23.846001"
           x1="-146.233" />
        <line
           style="fill:none;stroke:#000000;stroke-width:0.89999998"
           id="line19"
           y2="40.854"
           x2="-146.233"
           y1="57.862"
           x1="-146.233" />
        <line
           style="fill:none;stroke:#000000;stroke-width:0.89999998"
           id="line21"
           y2="74.870003"
           x2="-146.233"
           y1="91.876999"
           x1="-146.233" />
        <line
           style="fill:none;stroke:#000000;stroke-width:0.89999998"
           id="line23"
           y2="108.885"
           x2="-146.233"
           y1="125.893"
           x1="-146.233" />
        <line
           style="fill:none;stroke:#000000;stroke-width:0.89999998"
           id="line25"
           y2="142.901"
           x2="-146.233"
           y1="159.909"
           x1="-146.233" />
        <line
           style="fill:none;stroke:#000000;stroke-width:0.89999998"
           id="line27"
           y2="184.004"
           x2="-146.233"
           y1="199.59399"
           x1="-146.233" />
      </g>
      <g
         id="g29"
         transform="matrix(1.2460419,0,0,1.2460419,245.97391,351.51946)">
        <line
           style="fill:none;stroke:#000000;stroke-width:0.89999998"
           id="line31"
           y2="199.59399"
           x2="278.96399"
           y1="184.004"
           x1="278.96399" />
        <line
           style="fill:none;stroke:#000000;stroke-width:0.89999998"
           id="line33"
           y2="159.909"
           x2="278.96399"
           y1="142.901"
           x1="278.96399" />
        <line
           style="fill:none;stroke:#000000;stroke-width:0.89999998"
           id="line35"
           y2="125.893"
           x2="278.96399"
           y1="108.885"
           x1="278.96399" />
        <line
           style="fill:none;stroke:#000000;stroke-width:0.89999998"
           id="line37"
           y2="91.876999"
           x2="278.96399"
           y1="74.870003"
           x1="278.96399" />
        <line
           style="fill:none;stroke:#000000;stroke-width:0.89999998"
           id="line39"
           y2="57.862"
           x2="278.96399"
           y1="40.854"
           x1="278.96399" />
        <line
           style="fill:none;stroke:#000000;stroke-width:0.89999998"
           id="line41"
           y2="23.846001"
           x2="278.96399"
           y1="6.8379998"
           x1="278.96399" />
        <line
           style="fill:none;stroke:#000000;stroke-width:0.89999998"
           id="line43"
           y2="-10.169"
           x2="278.96399"
           y1="-27.177"
           x1="278.96399" />
        <line
           style="fill:none;stroke:#000000;stroke-width:0.89999998"
           id="line45"
           y2="-51.272999"
           x2="278.96399"
           y1="-66.862999"
           x1="278.96399" />
      </g>
      <g
         id="g47"
         transform="matrix(1.2460419,0,0,1.2460419,687.48518,351.51946)">
        <polygon
           style="fill:none;stroke:#000000;stroke-width:0.89999998"
           id="polygon49"
           points="208.098,-66.863 208.098,-51.273 199.594,-51.273 199.594,-43.619 193.641,-43.619 193.641,-47.162 186.555,-47.162 186.555,-43.619 179.467,-43.619 179.467,-34.832 186.555,-34.832 186.555,-31.289 193.641,-31.289 193.641,-34.832 199.594,-34.832 199.594,-27.177 208.098,-27.177 208.098,-10.169 199.594,-10.169 199.594,6.838 208.098,6.838 208.098,23.846 199.594,23.846 199.594,40.854 208.098,40.854 208.098,57.862 199.594,57.862 199.594,74.87 208.098,74.87 208.098,91.877 199.594,91.877 199.594,108.885 208.098,108.885 208.098,125.893 199.594,125.893 199.594,142.901 208.098,142.901 208.098,159.909 199.594,159.909 199.594,167.563 193.641,167.563 193.641,164.02 186.555,164.02 186.555,167.563 179.467,167.563 179.467,176.35 186.555,176.35 186.555,179.893 193.641,179.893 193.641,176.35 199.594,176.35 199.594,184.004 208.098,184.004 208.098,199.594 184.004,199.594 184.004,208.098 177.2,208.098 177.2,197.61 166.711,197.61 166.711,208.098 159.909,208.098 159.909,199.594 142.901,199.594 142.901,208.098 125.893,208.098 125.893,199.594 108.885,199.594 108.885,208.098 91.877,208.098 91.877,199.594 74.87,199.594 74.87,208.098 57.862,208.098 57.862,199.594 40.855,199.594 40.855,208.098 23.846,208.098 23.846,199.594 6.838,199.594 6.838,208.098 -10.169,208.098 -10.169,199.594 -27.178,199.594 -27.178,208.098 -33.98,208.098 -33.98,197.61 -44.469,197.61 -44.469,208.098 -51.272,208.098 -51.272,199.594 -75.367,199.594 -75.367,184.004 -66.862,184.004 -66.862,176.35 -60.91,176.35 -60.91,179.893 -53.823,179.893 -53.823,176.35 -46.736,176.35 -46.736,167.563 -53.823,167.563 -53.823,164.02 -60.91,164.02 -60.91,167.563 -66.862,167.563 -66.862,159.909 -75.367,159.909 -75.367,142.901 -66.862,142.901 -66.862,125.893 -75.367,125.893 -75.367,108.885 -66.862,108.885 -66.862,91.877 -75.367,91.877 -75.367,74.87 -66.862,74.87 -66.862,57.862 -75.367,57.862 -75.367,40.854 -66.862,40.854 -66.862,23.846 -75.367,23.846 -75.367,6.838 -66.862,6.838 -66.862,-10.169 -75.367,-10.169 -75.367,-27.177 -66.862,-27.177 -66.862,-34.832 -60.91,-34.832 -60.91,-31.289 -53.823,-31.289 -53.823,-34.832 -46.736,-34.832 -46.736,-43.619 -53.823,-43.619 -53.823,-47.162 -60.91,-47.162 -60.91,-43.619 -66.862,-43.619 -66.862,-51.273 -75.367,-51.273 -75.367,-66.863 -51.272,-66.863 -51.272,-75.367 -44.469,-75.367 -44.469,-64.878 -33.98,-64.878 -33.98,-75.367 -27.178,-75.367 -27.178,-66.863 -10.169,-66.863 -10.169,-75.367 6.838,-75.367 6.838,-66.863 23.846,-66.863 23.846,-75.367 40.855,-75.367 40.855,-66.863 57.862,-66.863 57.862,-75.367 74.87,-75.367 74.87,-66.863 91.877,-66.863 91.877,-75.367 108.885,-75.367 108.885,-66.863 125.893,-66.863 125.893,-75.367 142.901,-75.367 142.901,-66.863 159.909,-66.863 159.909,-75.367 166.711,-75.367 166.711,-64.878 177.2,-64.878 177.2,-75.367 184.004,-75.367 184.004,-66.863 " />
      </g>
      <rect
         style="fill:none;stroke:#000000;stroke-width:1.12143767"
         id="rect67"
         height="10.547745"
         width="21.191433"
         y="433.92392"
         x="696.00562" />
      <rect
         style="fill:none;stroke:#000000;stroke-width:1.12143767"
         id="rect69"
         height="10.547745"
         width="21.19268"
         y="434.0697"
         x="823.16046" />
      <rect
         style="fill:none;stroke:#000000;stroke-width:1.12143767"
         id="rect123"
         height="10.547745"
         width="21.191433"
         y="392.09555"
         x="696.62866" />
      <rect
         style="fill:none;stroke:#000000;stroke-width:1.12143767"
         id="rect125"
         height="10.547745"
         width="21.19268"
         y="392.24005"
         x="823.78351" />
      <rect
         style="fill:none;stroke:#000000;stroke-width:1.12143767"
         id="rect127"
         height="10.547745"
         width="21.191433"
         y="476.86502"
         x="696.00562" />
      <rect
         style="fill:none;stroke:#000000;stroke-width:1.12143767"
         id="rect129"
         height="10.547745"
         width="21.19268"
         y="477.00958"
         x="823.16046" />
      <rect
         style="fill:none;stroke:#000000;stroke-width:1.12143767"
         id="rect131"
         height="10.547745"
         width="21.191433"
         y="349.34763"
         x="696.00562" />
      <rect
         style="fill:none;stroke:#000000;stroke-width:1.12143767"
         id="rect133"
         height="10.547745"
         width="21.19268"
         y="349.49335"
         x="823.16046" />
      <rect
         style="fill:none;stroke:#000000;stroke-width:1.12143767"
         id="rect135"
         height="10.547745"
         width="21.191433"
         y="518.88782"
         x="696.00562" />
      <rect
         style="fill:none;stroke:#000000;stroke-width:1.12143767"
         id="rect137"
         height="10.547745"
         width="21.19268"
         y="519.03241"
         x="823.16046" />
    </g>
  </g>
</svg>
