<?xml version="1.0" encoding="utf-8"?>
<!-- Generator: Adobe Illustrator 16.0.0, SVG Export Plug-In . SVG Version: 6.00 Build 0)  -->
<!DOCTYPE svg PUBLIC "-//W3C//DTD SVG 1.1//EN" "http://www.w3.org/Graphics/SVG/1.1/DTD/svg11.dtd">
<svg version="1.1" id="Layer_1" xmlns="http://www.w3.org/2000/svg" xmlns:xlink="http://www.w3.org/1999/xlink" x="0px" y="0px"
	 width="886.394px" height="602.929px" viewBox="0 0 886.394 602.929" enable-background="new 0 0 886.394 602.929"
	 xml:space="preserve">
<g transform="translate(376.83101849999997, 22.5000185) ">
	<path fill="none" stroke="#000000" stroke-width="0.9" d="M199.594-4.5"/>
	<polyline fill="none" stroke="#000000" stroke-width="0.9" points="-65.02,270.464 -65.02,4.004 -75.367,4.004 -75.367,-4.5 
		199.594,-4.5 	"/>
	<path fill="none" stroke="#000000" stroke-width="0.9" d="M-51.272,278.964"/>
</g>
<g transform="translate(731.1620184999999, 376.83101849999997) ">
	<line fill="none" stroke="#000000" stroke-width="0.9" x1="-146.233" y1="-51.273" x2="-146.233" y2="-66.863"/>
	<line fill="none" stroke="#000000" stroke-width="0.9" x1="-146.233" y1="-10.169" x2="-146.233" y2="-27.177"/>
	<line fill="none" stroke="#000000" stroke-width="0.9" x1="-146.233" y1="23.846" x2="-146.233" y2="6.838"/>
	<line fill="none" stroke="#000000" stroke-width="0.9" x1="-146.233" y1="57.862" x2="-146.233" y2="40.854"/>
	<line fill="none" stroke="#000000" stroke-width="0.9" x1="-146.233" y1="91.877" x2="-146.233" y2="74.87"/>
	<line fill="none" stroke="#000000" stroke-width="0.9" x1="-146.233" y1="125.893" x2="-146.233" y2="108.885"/>
	<line fill="none" stroke="#000000" stroke-width="0.9" x1="-146.233" y1="159.909" x2="-146.233" y2="142.901"/>
	<line fill="none" stroke="#000000" stroke-width="0.9" x1="-146.233" y1="199.594" x2="-146.233" y2="184.004"/>
</g>
<g transform="translate(22.5000185, 376.83101849999997) ">
	<line fill="none" stroke="#000000" stroke-width="0.9" x1="278.964" y1="184.004" x2="278.964" y2="199.594"/>
	<line fill="none" stroke="#000000" stroke-width="0.9" x1="278.964" y1="142.901" x2="278.964" y2="159.909"/>
	<line fill="none" stroke="#000000" stroke-width="0.9" x1="278.964" y1="108.885" x2="278.964" y2="125.893"/>
	<line fill="none" stroke="#000000" stroke-width="0.9" x1="278.964" y1="74.87" x2="278.964" y2="91.877"/>
	<line fill="none" stroke="#000000" stroke-width="0.9" x1="278.964" y1="40.854" x2="278.964" y2="57.862"/>
	<line fill="none" stroke="#000000" stroke-width="0.9" x1="278.964" y1="6.838" x2="278.964" y2="23.846"/>
	<line fill="none" stroke="#000000" stroke-width="0.9" x1="278.964" y1="-27.177" x2="278.964" y2="-10.169"/>
	<line fill="none" stroke="#000000" stroke-width="0.9" x1="278.964" y1="-66.863" x2="278.964" y2="-51.273"/>
</g>
<g transform="translate(376.83101849999997, 376.83101849999997) ">
	<polygon fill="none" stroke="#000000" stroke-width="0.9" points="-75.367,-66.863 -51.272,-66.863 -51.272,-75.367 
		-44.469,-75.367 -44.469,-64.878 -33.98,-64.878 -33.98,-75.367 -27.178,-75.367 -27.178,-66.863 -10.169,-66.863 -10.169,-75.367 
		6.838,-75.367 6.838,-66.863 23.846,-66.863 23.846,-75.367 40.855,-75.367 40.855,-66.863 57.862,-66.863 57.862,-75.367 
		74.87,-75.367 74.87,-66.863 91.877,-66.863 91.877,-75.367 108.885,-75.367 108.885,-66.863 125.893,-66.863 125.893,-75.367 
		142.901,-75.367 142.901,-66.863 159.909,-66.863 159.909,-75.367 166.711,-75.367 166.711,-64.878 177.2,-64.878 177.2,-75.367 
		184.004,-75.367 184.004,-66.863 208.098,-66.863 208.098,-51.273 199.594,-51.273 199.594,-43.619 193.641,-43.619 
		193.641,-47.162 186.555,-47.162 186.555,-43.619 179.467,-43.619 179.467,-34.832 186.555,-34.832 186.555,-31.289 
		193.641,-31.289 193.641,-34.832 199.594,-34.832 199.594,-27.177 208.098,-27.177 208.098,-10.169 199.594,-10.169 199.594,6.838 
		208.098,6.838 208.098,23.846 199.594,23.846 199.594,40.854 208.098,40.854 208.098,57.862 199.594,57.862 199.594,74.87 
		208.098,74.87 208.098,91.877 199.594,91.877 199.594,108.885 208.098,108.885 208.098,125.893 199.594,125.893 199.594,142.901 
		208.098,142.901 208.098,159.909 199.594,159.909 199.594,167.563 193.641,167.563 193.641,164.02 186.555,164.02 186.555,167.563 
		179.467,167.563 179.467,176.35 186.555,176.35 186.555,179.893 193.641,179.893 193.641,176.35 199.594,176.35 199.594,184.004 
		208.098,184.004 208.098,199.594 184.004,199.594 184.004,208.098 177.2,208.098 177.2,197.61 166.711,197.61 166.711,208.098 
		159.909,208.098 159.909,199.594 142.901,199.594 142.901,208.098 125.893,208.098 125.893,199.594 108.885,199.594 
		108.885,208.098 91.877,208.098 91.877,199.594 74.87,199.594 74.87,208.098 57.862,208.098 57.862,199.594 40.855,199.594 
		40.855,208.098 23.846,208.098 23.846,199.594 6.838,199.594 6.838,208.098 -10.169,208.098 -10.169,199.594 -27.178,199.594 
		-27.178,208.098 -33.98,208.098 -33.98,197.61 -44.469,197.61 -44.469,208.098 -51.272,208.098 -51.272,199.594 -75.367,199.594 
		-75.367,184.004 -66.862,184.004 -66.862,176.35 -60.91,176.35 -60.91,179.893 -53.823,179.893 -53.823,176.35 -46.736,176.35 
		-46.736,167.563 -53.823,167.563 -53.823,164.02 -60.91,164.02 -60.91,167.563 -66.862,167.563 -66.862,159.909 -75.367,159.909 
		-75.367,142.901 -66.862,142.901 -66.862,125.893 -75.367,125.893 -75.367,108.885 -66.862,108.885 -66.862,91.877 -75.367,91.877 
		-75.367,74.87 -66.862,74.87 -66.862,57.862 -75.367,57.862 -75.367,40.854 -66.862,40.854 -66.862,23.846 -75.367,23.846 
		-75.367,6.838 -66.862,6.838 -66.862,-10.169 -75.367,-10.169 -75.367,-27.177 -66.862,-27.177 -66.862,-34.832 -60.91,-34.832 
		-60.91,-31.289 -53.823,-31.289 -53.823,-34.832 -46.736,-34.832 -46.736,-43.619 -53.823,-43.619 -53.823,-47.162 -60.91,-47.162 
		-60.91,-43.619 -66.862,-43.619 -66.862,-51.273 -75.367,-51.273 	"/>
</g>
<line fill="none" stroke="#000000" stroke-miterlimit="10" x1="577.406" y1="26.504" x2="577.406" y2="292.964"/>
<line fill="none" stroke="#000000" stroke-miterlimit="10" x1="311.811" y1="292.964" x2="383.669" y2="292.964"/>
<path fill="none" stroke="#000000" stroke-miterlimit="10" d="M309.969,277.37"/>
<path fill="none" stroke="#000000" stroke-miterlimit="10" d="M576.425,18"/>
<path fill="none" stroke="#000000" stroke-miterlimit="10" d="M309.969,18"/>
<polyline fill="none" stroke="#000000" stroke-miterlimit="10" points="576.425,18 584.929,18 584.929,26.504 576.864,26.504 "/>
<line fill="none" stroke="#000000" stroke-width="0.9" x1="400.677" y1="301.464" x2="383.669" y2="301.464"/>
<polyline fill="none" stroke="#000000" stroke-width="0.9" points="485.716,301.464 502.724,301.464 502.724,292.964 "/>
<rect x="383.669" y="442.964" fill="none" stroke="#000000" stroke-width="0.9" width="17.007" height="8.465"/>
<rect x="485.716" y="443.081" fill="none" stroke="#000000" stroke-width="0.9" width="17.008" height="8.465"/>
<line fill="none" stroke="#000000" stroke-width="0.9" x1="383.669" y1="301.464" x2="383.669" y2="292.964"/>
<line fill="none" stroke="#000000" stroke-width="0.9" x1="400.677" y1="292.964" x2="400.677" y2="301.464"/>
<line fill="none" stroke="#000000" stroke-miterlimit="10" x1="400.677" y1="292.964" x2="485.716" y2="292.964"/>
<line fill="none" stroke="#000000" stroke-miterlimit="10" x1="502.724" y1="292.964" x2="577.406" y2="292.964"/>
<line fill="none" stroke="#000000" stroke-width="0.9" x1="485.716" y1="301.464" x2="485.716" y2="292.964"/>
<g transform="translate(376.83101849999997, 22.5000185) ">
	<path fill="none" stroke="#000000" stroke-width="0.9" d="M-83.871-3.994"/>
	<polyline fill="none" stroke="#000000" stroke-width="0.9" points="-348.485,270.97 -348.485,4.51 -358.832,4.51 -358.832,-3.994 
		-83.871,-3.994 	"/>
</g>
<path fill="none" stroke="#000000" stroke-width="0.9" d="M219.259,301.97"/>
<path fill="none" stroke="#000000" stroke-width="0.9" d="M202.251,301.97"/>
<path fill="none" stroke="#000000" stroke-width="0.9" d="M151.228,301.97"/>
<path fill="none" stroke="#000000" stroke-width="0.9" d="M117.212,301.97"/>
<path fill="none" stroke="#000000" stroke-width="0.9" d="M100.205,301.97"/>
<line fill="none" stroke="#000000" stroke-miterlimit="10" x1="293.941" y1="27.01" x2="293.941" y2="293.47"/>
<line fill="none" stroke="#000000" stroke-miterlimit="10" x1="28.346" y1="293.47" x2="100.205" y2="293.47"/>
<path fill="none" stroke="#000000" stroke-miterlimit="10" d="M26.503,277.876"/>
<path fill="none" stroke="#000000" stroke-miterlimit="10" d="M292.96,18.506"/>
<path fill="none" stroke="#000000" stroke-miterlimit="10" d="M26.503,18.506"/>
<polyline fill="none" stroke="#000000" stroke-miterlimit="10" points="292.96,18.506 301.464,18.506 301.464,27.01 293.399,27.01 
	"/>
<line fill="none" stroke="#000000" stroke-width="0.9" x1="117.212" y1="301.97" x2="100.205" y2="301.97"/>
<polyline fill="none" stroke="#000000" stroke-width="0.9" points="202.251,301.97 219.259,301.97 219.259,293.47 "/>
<line fill="none" stroke="#000000" stroke-width="0.9" x1="100.205" y1="301.97" x2="100.205" y2="293.47"/>
<line fill="none" stroke="#000000" stroke-width="0.9" x1="117.212" y1="293.47" x2="117.212" y2="301.97"/>
<line fill="none" stroke="#000000" stroke-miterlimit="10" x1="117.212" y1="293.47" x2="202.251" y2="293.47"/>
<line fill="none" stroke="#000000" stroke-miterlimit="10" x1="219.259" y1="293.47" x2="293.941" y2="293.47"/>
<line fill="none" stroke="#000000" stroke-width="0.9" x1="202.251" y1="301.97" x2="202.251" y2="293.47"/>
<rect x="384.169" y="409.395" fill="none" stroke="#000000" stroke-width="0.9" width="17.007" height="8.465"/>
<rect x="486.216" y="409.511" fill="none" stroke="#000000" stroke-width="0.9" width="17.008" height="8.465"/>
<rect x="383.669" y="477.426" fill="none" stroke="#000000" stroke-width="0.9" width="17.007" height="8.465"/>
<rect x="485.716" y="477.542" fill="none" stroke="#000000" stroke-width="0.9" width="17.008" height="8.465"/>
<rect x="383.669" y="375.088" fill="none" stroke="#000000" stroke-width="0.9" width="17.007" height="8.465"/>
<rect x="485.716" y="375.205" fill="none" stroke="#000000" stroke-width="0.9" width="17.008" height="8.465"/>
<rect x="383.669" y="511.151" fill="none" stroke="#000000" stroke-width="0.9" width="17.007" height="8.465"/>
<rect x="485.716" y="511.267" fill="none" stroke="#000000" stroke-width="0.9" width="17.008" height="8.465"/>
</svg>
